<svg width="1920" height="1082" viewBox="0 0 1920 1082" fill="none" xmlns="http://www.w3.org/2000/svg">
<rect y="1" width="1920" height="1081" fill="white"/>
<path d="M460.999 403.876C767.257 170.667 857.142 215.789 864 2H-21V72.1347V1085H644.754C644.754 1085 513.664 959.36 416.92 821.672C320.177 683.984 311.591 538.552 460.999 403.876Z" fill="#694B3C" fill-opacity="0.51" stroke="#B2B2B2" stroke-width="3"/>
<path d="M140.591 188.722C121.085 183.495 85.4174 205.983 80.3605 224.856C78.0829 233.356 83.3077 240.198 94.3441 243.155C106.341 246.37 115.899 242.384 125.521 244.962C135.226 247.563 141.533 255.8 153.424 258.986C164.461 261.943 172.407 258.63 174.684 250.13C179.741 231.257 160.097 193.948 140.591 188.722ZM105.236 175.957C104.943 166.833 98.5373 159.259 90.9301 159.038C83.323 158.816 77.3956 166.033 77.6889 175.156C77.9823 184.28 84.388 191.854 91.9951 192.075C99.6023 192.297 105.53 185.08 105.236 175.957ZM127.403 176.472C135.534 176.526 142.064 167.364 141.989 156.01C141.915 144.656 135.262 135.41 127.131 135.356C118.999 135.302 112.469 144.464 112.544 155.818C112.619 167.172 119.273 176.421 127.403 176.472ZM198.437 187.846C191.738 184.235 182.406 187.592 177.588 195.346C172.772 203.1 174.297 212.314 180.996 215.925C187.694 219.537 197.026 216.18 201.845 208.426C206.661 200.672 205.135 191.458 198.437 187.846ZM158.137 184.707C165.205 188.726 175.59 184.045 181.332 174.25C187.073 164.454 185.998 153.257 178.93 149.236C171.862 145.214 161.477 149.897 155.735 159.693C149.993 169.489 151.068 180.688 158.137 184.707Z" fill="white"/>
<path d="M326.587 134.613C307.081 129.387 271.413 151.875 266.357 170.747C264.079 179.247 269.304 186.09 280.34 189.047C292.337 192.262 301.895 188.276 311.517 190.854C321.222 193.455 327.529 201.691 339.42 204.878C350.457 207.835 358.403 204.521 360.681 196.022C365.737 177.149 346.093 139.84 326.587 134.613ZM291.232 121.849C290.939 112.725 284.533 105.151 276.926 104.929C269.319 104.708 263.392 111.924 263.685 121.048C263.978 130.172 270.384 137.746 277.991 137.967C285.598 138.189 291.526 130.972 291.232 121.849ZM313.399 122.364C321.53 122.418 328.06 113.256 327.985 101.902C327.911 90.5474 321.258 81.3017 313.127 81.2479C304.995 81.194 298.465 90.3555 298.54 101.71C298.615 113.064 305.269 122.313 313.399 122.364ZM384.433 133.738C377.734 130.127 368.402 133.484 363.584 141.238C358.768 148.992 360.293 158.206 366.992 161.817C373.69 165.429 383.022 162.072 387.841 154.318C392.657 146.564 391.132 137.35 384.433 133.738ZM344.133 130.599C351.201 134.618 361.586 129.937 367.328 120.141C373.07 110.346 371.994 99.1489 364.926 95.1275C357.858 91.1062 347.473 95.7892 341.731 105.585C335.989 115.381 337.064 126.58 344.133 130.599Z" fill="white"/>
<path d="M1319 1082C1399.2 659.9 1920 582 1920 582V1082H1319Z" fill="#694B3C" fill-opacity="0.5"/>
<path d="M1605.59 932.722C1586.08 927.495 1550.42 949.983 1545.36 968.856C1543.08 977.356 1548.31 984.198 1559.34 987.155C1571.34 990.37 1580.9 986.384 1590.52 988.962C1600.23 991.563 1606.53 999.8 1618.42 1002.99C1629.46 1005.94 1637.41 1002.63 1639.68 994.13C1644.74 975.257 1625.1 937.948 1605.59 932.722ZM1570.24 919.957C1569.94 910.833 1563.54 903.259 1555.93 903.038C1548.32 902.816 1542.4 910.033 1542.69 919.156C1542.98 928.28 1549.39 935.854 1557 936.075C1564.6 936.297 1570.53 929.08 1570.24 919.957ZM1592.4 920.472C1600.53 920.526 1607.06 911.364 1606.99 900.01C1606.91 888.656 1600.26 879.41 1592.13 879.356C1584 879.302 1577.47 888.464 1577.54 899.818C1577.62 911.172 1584.27 920.421 1592.4 920.472ZM1663.44 931.846C1656.74 928.235 1647.41 931.592 1642.59 939.346C1637.77 947.1 1639.3 956.314 1646 959.925C1652.69 963.537 1662.03 960.18 1666.84 952.426C1671.66 944.672 1670.14 935.458 1663.44 931.846ZM1623.14 928.707C1630.21 932.726 1640.59 928.045 1646.33 918.25C1652.07 908.454 1651 897.257 1643.93 893.236C1636.86 889.214 1626.48 893.897 1620.74 903.693C1614.99 913.489 1616.07 924.688 1623.14 928.707Z" fill="white"/>
<path d="M1791.59 878.613C1772.08 873.387 1736.41 895.875 1731.36 914.747C1729.08 923.247 1734.3 930.09 1745.34 933.047C1757.34 936.262 1766.9 932.276 1776.52 934.854C1786.22 937.455 1792.53 945.691 1804.42 948.878C1815.46 951.835 1823.4 948.521 1825.68 940.022C1830.74 921.149 1811.09 883.84 1791.59 878.613ZM1756.23 865.849C1755.94 856.725 1749.53 849.151 1741.93 848.929C1734.32 848.708 1728.39 855.924 1728.69 865.048C1728.98 874.172 1735.38 881.746 1742.99 881.967C1750.6 882.189 1756.53 874.972 1756.23 865.849ZM1778.4 866.364C1786.53 866.418 1793.06 857.256 1792.99 845.902C1792.91 834.547 1786.26 825.302 1778.13 825.248C1770 825.194 1763.47 834.356 1763.54 845.71C1763.61 857.064 1770.27 866.313 1778.4 866.364ZM1849.43 877.738C1842.73 874.127 1833.4 877.484 1828.58 885.238C1823.77 892.992 1825.29 902.206 1831.99 905.817C1838.69 909.429 1848.02 906.072 1852.84 898.318C1857.66 890.564 1856.13 881.35 1849.43 877.738ZM1809.13 874.599C1816.2 878.618 1826.59 873.937 1832.33 864.141C1838.07 854.346 1836.99 843.149 1829.93 839.128C1822.86 835.106 1812.47 839.789 1806.73 849.585C1800.99 859.381 1802.06 870.58 1809.13 874.599Z" fill="white"/>
</svg>
