<svg width="57" height="52" viewBox="0 0 57 52" fill="none" xmlns="http://www.w3.org/2000/svg">
<path d="M55.2188 6.9332H48.0938L47.2966 5.38295C47.0008 4.80712 46.546 4.32284 45.9833 3.98435C45.4205 3.64587 44.772 3.46656 44.1104 3.46652H38.141L35.104 0.511181C33.9807 -0.580822 32.0625 0.19268 32.0625 1.73643V17.9691L46.3125 22.9211V19.0666H49.875C53.8104 19.0666 57 15.9628 57 12.1332V8.66654C57 7.70887 56.2029 6.9332 55.2188 6.9332ZM42.75 12.1332C41.7659 12.1332 40.9688 11.3575 40.9688 10.3999C40.9688 9.44221 41.7659 8.66654 42.75 8.66654C43.7341 8.66654 44.5312 9.44221 44.5312 10.3999C44.5312 11.3575 43.7341 12.1332 42.75 12.1332ZM10.6875 20.7999C8.72367 20.7999 7.125 19.2442 7.125 17.3332C7.125 15.419 5.52967 13.8666 3.5625 13.8666C1.59533 13.8666 0 15.419 0 17.3332C0 21.8464 2.98693 25.6587 7.125 27.0941V50.2667C7.125 51.2243 7.92211 52 8.90625 52H16.0312C17.0154 52 17.8125 51.2243 17.8125 50.2667V38.1333H35.625V50.2667C35.625 51.2243 36.4221 52 37.4062 52H44.5312C45.5154 52 46.3125 51.2243 46.3125 50.2667V26.6012L29.6188 20.7999H10.6875Z" fill="#694B3C"/>
</svg>
