<svg width="379" height="1551" viewBox="0 0 379 1551" fill="none" xmlns="http://www.w3.org/2000/svg">
<rect x="3" width="375" height="1550" fill="white"/>
<path d="M177 474.5C270 344 267.003 100.5 177 0H2.99707L0.49707 1550.5H378C386.003 1515.5 338 1194 211.5 1075C85 956 84 605 177 474.5Z" fill="#694B3C" fill-opacity="0.5"/>
<path d="M164.15 256.079C150.634 252.458 125.92 268.04 122.416 281.117C120.837 287.007 124.458 291.749 132.105 293.798C140.418 296.025 147.041 293.263 153.708 295.05C160.433 296.852 164.804 302.559 173.043 304.767C180.691 306.816 186.197 304.52 187.775 298.63C191.279 285.553 177.667 259.701 164.15 256.079ZM139.653 247.234C139.449 240.912 135.011 235.664 129.74 235.511C124.468 235.357 120.361 240.358 120.564 246.679C120.768 253.001 125.206 258.25 130.478 258.403C135.749 258.557 139.856 253.556 139.653 247.234ZM155.012 247.591C160.647 247.628 165.172 241.28 165.12 233.413C165.068 225.545 160.458 219.138 154.824 219.101C149.189 219.064 144.664 225.412 144.716 233.28C144.768 241.147 149.379 247.556 155.012 247.591ZM204.233 255.473C199.592 252.97 193.125 255.296 189.787 260.669C186.45 266.043 187.506 272.427 192.148 274.93C196.79 277.432 203.256 275.106 206.595 269.733C209.932 264.36 208.875 257.976 204.233 255.473ZM176.308 253.297C181.207 256.082 188.402 252.839 192.381 246.051C196.36 239.264 195.615 231.505 190.717 228.719C185.819 225.932 178.623 229.177 174.644 235.965C170.666 242.752 171.41 250.513 176.308 253.297Z" fill="white"/>
<path d="M247.15 1423.08C233.634 1419.46 208.92 1435.04 205.416 1448.12C203.837 1454.01 207.458 1458.75 215.105 1460.8C223.418 1463.03 230.041 1460.26 236.708 1462.05C243.433 1463.85 247.804 1469.56 256.043 1471.77C263.691 1473.82 269.197 1471.52 270.775 1465.63C274.279 1452.55 260.667 1426.7 247.15 1423.08ZM222.653 1414.23C222.449 1407.91 218.011 1402.66 212.74 1402.51C207.468 1402.36 203.361 1407.36 203.564 1413.68C203.768 1420 208.206 1425.25 213.478 1425.4C218.749 1425.56 222.856 1420.56 222.653 1414.23ZM238.012 1414.59C243.647 1414.63 248.172 1408.28 248.12 1400.41C248.068 1392.54 243.458 1386.14 237.824 1386.1C232.189 1386.06 227.664 1392.41 227.716 1400.28C227.768 1408.15 232.379 1414.56 238.012 1414.59ZM287.233 1422.47C282.592 1419.97 276.125 1422.3 272.787 1427.67C269.45 1433.04 270.506 1439.43 275.148 1441.93C279.79 1444.43 286.256 1442.11 289.595 1436.73C292.932 1431.36 291.875 1424.98 287.233 1422.47ZM259.308 1420.3C264.207 1423.08 271.402 1419.84 275.381 1413.05C279.36 1406.26 278.615 1398.51 273.717 1395.72C268.819 1392.93 261.623 1396.18 257.644 1402.96C253.666 1409.75 254.41 1417.51 259.308 1420.3Z" fill="white"/>
<path d="M104.15 147.079C90.6344 143.458 65.9196 159.04 62.4156 172.117C60.8374 178.007 64.4578 182.749 72.1052 184.798C80.4181 187.025 87.0413 184.263 93.7083 186.05C100.433 187.852 104.804 193.559 113.043 195.767C120.691 197.816 126.197 195.52 127.775 189.63C131.279 176.553 117.667 150.701 104.15 147.079ZM79.6527 138.234C79.4494 131.912 75.0107 126.664 69.7396 126.511C64.4684 126.357 60.3611 131.358 60.5644 137.679C60.7677 144.001 65.2064 149.25 70.4775 149.403C75.7487 149.557 79.856 144.556 79.6527 138.234ZM95.0122 138.591C100.647 138.628 105.172 132.28 105.12 124.413C105.068 116.545 100.458 110.138 94.8237 110.101C89.1894 110.064 84.6644 116.412 84.7162 124.28C84.768 132.147 89.3792 138.556 95.0122 138.591ZM144.233 146.473C139.592 143.97 133.125 146.296 129.787 151.669C126.45 157.043 127.506 163.427 132.148 165.93C136.79 168.432 143.256 166.106 146.595 160.733C149.932 155.36 148.875 148.976 144.233 146.473ZM116.309 144.297C121.207 147.082 128.402 143.839 132.381 137.051C136.36 130.264 135.615 122.505 130.717 119.719C125.819 116.932 118.623 120.177 114.644 126.965C110.666 133.752 111.41 141.513 116.309 144.297Z" fill="white"/>
<path d="M187.15 1314.08C173.634 1310.46 148.92 1326.04 145.416 1339.12C143.837 1345.01 147.458 1349.75 155.105 1351.8C163.418 1354.03 170.041 1351.26 176.708 1353.05C183.433 1354.85 187.804 1360.56 196.043 1362.77C203.691 1364.82 209.197 1362.52 210.775 1356.63C214.279 1343.55 200.667 1317.7 187.15 1314.08ZM162.653 1305.23C162.449 1298.91 158.011 1293.66 152.74 1293.51C147.468 1293.36 143.361 1298.36 143.564 1304.68C143.768 1311 148.206 1316.25 153.478 1316.4C158.749 1316.56 162.856 1311.56 162.653 1305.23ZM178.012 1305.59C183.647 1305.63 188.172 1299.28 188.12 1291.41C188.068 1283.54 183.458 1277.14 177.824 1277.1C172.189 1277.06 167.664 1283.41 167.716 1291.28C167.768 1299.15 172.379 1305.56 178.012 1305.59ZM227.233 1313.47C222.592 1310.97 216.125 1313.3 212.787 1318.67C209.45 1324.04 210.506 1330.43 215.148 1332.93C219.79 1335.43 226.256 1333.11 229.595 1327.73C232.932 1322.36 231.875 1315.98 227.233 1313.47ZM199.309 1311.3C204.207 1314.08 211.402 1310.84 215.381 1304.05C219.36 1297.26 218.615 1289.51 213.717 1286.72C208.819 1283.93 201.623 1287.18 197.644 1293.96C193.666 1300.75 194.41 1308.51 199.309 1311.3Z" fill="white"/>
<path d="M140.15 1100.08C126.634 1096.46 101.92 1112.04 98.4156 1125.12C96.8374 1131.01 100.458 1135.75 108.105 1137.8C116.418 1140.03 123.041 1137.26 129.708 1139.05C136.433 1140.85 140.804 1146.56 149.043 1148.77C156.691 1150.82 162.197 1148.52 163.775 1142.63C167.279 1129.55 153.667 1103.7 140.15 1100.08ZM115.653 1091.23C115.449 1084.91 111.011 1079.66 105.74 1079.51C100.468 1079.36 96.3611 1084.36 96.5644 1090.68C96.7677 1097 101.206 1102.25 106.478 1102.4C111.749 1102.56 115.856 1097.56 115.653 1091.23ZM131.012 1091.59C136.647 1091.63 141.172 1085.28 141.12 1077.41C141.068 1069.54 136.458 1063.14 130.824 1063.1C125.189 1063.06 120.664 1069.41 120.716 1077.28C120.768 1085.15 125.379 1091.56 131.012 1091.59ZM180.233 1099.47C175.592 1096.97 169.125 1099.3 165.787 1104.67C162.45 1110.04 163.506 1116.43 168.148 1118.93C172.79 1121.43 179.256 1119.11 182.595 1113.73C185.932 1108.36 184.875 1101.98 180.233 1099.47ZM152.309 1097.3C157.207 1100.08 164.402 1096.84 168.381 1090.05C172.36 1083.26 171.615 1075.51 166.717 1072.72C161.819 1069.93 154.623 1073.18 150.644 1079.96C146.666 1086.75 147.41 1094.51 152.309 1097.3Z" fill="white"/>
<path d="M91.1505 420.079C77.6344 416.458 52.9196 432.04 49.4156 445.117C47.8374 451.007 51.4578 455.749 59.1052 457.798C67.4181 460.025 74.0413 457.263 80.7083 459.05C87.4332 460.852 91.8036 466.559 100.043 468.767C107.691 470.816 113.197 468.52 114.775 462.63C118.279 449.553 104.667 423.701 91.1505 420.079ZM66.6527 411.234C66.4494 404.912 62.0107 399.664 56.7396 399.511C51.4684 399.357 47.3611 404.358 47.5644 410.679C47.7677 417.001 52.2064 422.25 57.4775 422.403C62.7487 422.557 66.856 417.556 66.6527 411.234ZM82.0122 411.591C87.6465 411.628 92.1715 405.28 92.1197 397.413C92.0679 389.545 87.458 383.138 81.8237 383.101C76.1894 383.064 71.6644 389.412 71.7162 397.28C71.768 405.147 76.3792 411.556 82.0122 411.591ZM131.233 419.473C126.592 416.97 120.125 419.296 116.787 424.669C113.45 430.043 114.506 436.427 119.148 438.93C123.79 441.432 130.256 439.106 133.595 433.733C136.932 428.36 135.875 421.976 131.233 419.473ZM103.309 417.297C108.207 420.082 115.402 416.839 119.381 410.051C123.36 403.264 122.615 395.505 117.717 392.719C112.819 389.932 105.623 393.177 101.644 399.965C97.6658 406.752 98.4104 414.513 103.309 417.297Z" fill="white"/>
</svg>
